# xmcd
#
# Track frame offsets: 
#        150
#        29255
#        61057
#        89515
#
# Disc length: 1457 seconds
#
# Revision: 0
# Processed by: cddbd v1.5.2PL0 Copyright (c) Steve Scherf et al.
# Submitted via: ExactAudioCopyFreeDBPlugin 1.0
#
DISCID=2905af04
DTITLE=Velvet Desperados - Northern Lights
DYEAR=2004
DGENRE=Progressive Rock
TTITLE0=Trippin' With Jesus
TTITLE1=Reggae On The Moon
TTITLE2=Northern Lights
TTITLE3=Midnight Sun
EXTD=
EXTT0=
EXTT1=
EXTT2=
EXTT3=
PLAYORDER=
